<svg width="100" height="150" viewBox="0 0 100 150" fill="none" xmlns="http://www.w3.org/2000/svg">
	<path d="M.509.764h98.982v148.473H.509z"/>
	<path d="M50 75c0-13.666 11.079-24.745 24.745-24.745S99.49 61.334 99.49 75 88.411 99.745 74.745 99.745 50 88.667 50 75" fill="#1ABCFE"/>
	<path d="M.509 124.491c0-13.666 11.079-24.745 24.745-24.745H50v24.745c0 13.667-11.079 24.745-24.745 24.745S.509 138.158.509 124.491" fill="#0ACF83"/>
	<path d="M50 .764v49.491h24.745c13.667 0 24.745-11.079 24.745-24.745S88.412.764 74.745.764z" fill="#FF7262"/>
	<path d="M.509 25.509c0 13.667 11.079 24.745 24.745 24.745H50V.764H25.255C11.588.764.51 11.843.51 25.509" fill="#F24E1E"/>
	<path d="M.509 75c0 13.667 11.079 24.745 24.745 24.745H50v-49.49H25.255C11.588 50.255.51 61.334.51 75" fill="#A259FF"/>
</svg>
