<svg xmlns="http://www.w3.org/2000/svg" width="1000" height="758.995"><path d="M1000 325.903H636.265v-93.1H1000z" style="fill:#e669a2;fill-opacity:1;fill-rule:nonzero;stroke:none;color:#000;marker:none;visibility:visible;display:inline;overflow:visible"/><path d="M952.756 325.903H636.265V93.05h316.49z" style="fill:#f3be26;fill-opacity:1;fill-rule:nonzero;stroke:none;color:#000;marker:none;visibility:visible;display:inline;overflow:visible"/><path d="M821.998 325.903H636.265V0h185.733z" style="fill:#ee9c34;fill-opacity:1;fill-rule:nonzero;stroke:none;color:#000;marker:none;visibility:visible;display:inline;overflow:visible"/><path d="M858.539 325.903H636.265V36.366h222.274z" style="fill:#f3bc87;fill-opacity:1;fill-rule:nonzero;stroke:none;color:#000;marker:none;visibility:visible;display:inline;overflow:visible"/><path d="M636.213 36.42v289.453h185.765V36.421z" style="fill:#e3721c;fill-opacity:1;fill-rule:nonzero;stroke:none;color:#000;marker:none;visibility:visible;display:inline;overflow:visible"/><path d="M450.016 325.903h186.249v46.555H450.016z" style="fill:#ad1b02;fill-opacity:1;fill-rule:nonzero;stroke:none;color:#000;marker:none;visibility:visible;display:inline;overflow:visible"/><path d="M636.213 93v232.873h222.432V93z" style="fill:#e88d14;fill-opacity:1;fill-rule:nonzero;stroke:none;color:#000;marker:none;visibility:visible;display:inline;overflow:visible"/><path d="M636.213 93v232.873h185.765V93z" style="fill:#d85604;fill-opacity:1;fill-rule:nonzero;stroke:none;color:#000;marker:none;visibility:visible;display:inline;overflow:visible"/><path d="M752.414 325.903h-116.15V186.14h116.15z" style="fill:#c14303;fill-opacity:1;fill-rule:nonzero;stroke:none;color:#000;marker:none;visibility:visible;display:inline;overflow:visible"/><path d="M636.213 232.87v93.003h316.65V232.87z" style="fill:#db4e18;fill-opacity:1;fill-rule:nonzero;stroke:none;color:#000;marker:none;visibility:visible;display:inline;overflow:visible"/><path d="M636.213 232.87v93.003h222.432V232.87z" style="fill:#d1390d;fill-opacity:1;fill-rule:nonzero;stroke:none;color:#000;marker:none;visibility:visible;display:inline;overflow:visible"/><path d="M636.213 232.87v93.003h185.765V232.87z" style="fill:#c22303;fill-opacity:1;fill-rule:nonzero;stroke:none;color:#000;marker:none;visibility:visible;display:inline;overflow:visible"/><path d="M636.213 232.87v93.003h116.315V232.87z" style="fill:#ad1b02;fill-opacity:1;fill-rule:nonzero;stroke:none;color:#000;marker:none;visibility:visible;display:inline;overflow:visible"/><path style="fill:#fff;fill-opacity:1;fill-rule:nonzero;stroke:none" d="M805.26 177.456c-31.69 5.634-48.592 29.578-48.592 71.127 0 42.254 22.535 70.423 55.634 70.423 16.197 0 30.281-5.634 59.859-20.423v34.507c-35.916 16.902-57.042 21.127-85.211 21.127-31.69 0-54.226-7.747-71.831-26.76-18.31-18.31-28.17-42.254-28.17-69.719 0-59.86 45.071-101.408 110.564-101.408 42.958 0 73.24 20.422 73.24 49.295 0 19.014-14.085 32.395-34.508 32.395-10.563 0-19.014-3.521-30.986-9.86m-158.45 29.578c28.873-35.915 39.436-50.704 39.436-68.31 0-17.605-14.084-33.098-33.802-33.098-11.268 0-21.831 6.338-26.761 11.971v73.944l-47.183 63.38V161.963h-45.07l-74.648 123.24v-123.24h-25.353l-68.31 15.493v17.606l37.325 3.521V351.4h47.183l71.83-118.31V351.4h52.818M222.16 327.456h10.564c38.028 0 59.155-23.24 59.155-69.718 0-38.732-16.901-59.86-48.591-59.86-4.226 0-10.564.705-21.127 2.818zm0 83.099 30.987 7.042v17.606H131.316v-17.606l28.169-7.042V197.879h-30.986v-17.606l73.944-22.535h19.718v25.352c34.507-21.127 46.479-24.648 64.789-24.648 40.845 0 71.83 38.028 71.83 90.845 0 60.564-41.549 102.113-104.929 102.113-7.042 0-19.014-.704-31.69-1.408" transform="translate(-128.499 323.792)"/></svg>